<svg width="42" height="43" viewBox="0 0 42 43" fill="none" xmlns="http://www.w3.org/2000/svg">
<path d="M21.4156 11.9406C22.9688 11.9406 24.9156 10.8906 26.075 9.49062C27.125 8.22187 27.8906 6.45 27.8906 4.67813C27.8906 4.4375 27.8687 4.19688 27.825 4C26.0969 4.06563 24.0188 5.15938 22.7719 6.625C21.7875 7.74063 20.8906 9.49062 20.8906 11.2844C20.8906 11.5469 20.9344 11.8094 20.9563 11.8969C21.0656 11.9187 21.2406 11.9406 21.4156 11.9406ZM15.9469 38.4094C18.0687 38.4094 19.0094 36.9875 21.6562 36.9875C24.3469 36.9875 24.9375 38.3656 27.3 38.3656C29.6187 38.3656 31.1719 36.2219 32.6375 34.1219C34.2781 31.7156 34.9562 29.3531 35 29.2437C34.8469 29.2 30.4062 27.3844 30.4062 22.2875C30.4062 17.8687 33.9062 15.8781 34.1031 15.725C31.7844 12.4 28.2625 12.3125 27.3 12.3125C24.6969 12.3125 22.575 13.8875 21.2406 13.8875C19.7969 13.8875 17.8938 12.4 15.6406 12.4C11.3531 12.4 7 15.9437 7 22.6375C7 26.7937 8.61875 31.1906 10.6094 34.0344C12.3156 36.4406 13.8031 38.4094 15.9469 38.4094Z" fill="white"/>
</svg>
