<svg width="54" height="48" viewBox="0 0 54 48" fill="none" xmlns="http://www.w3.org/2000/svg">
<g clip-path="url(#clip0)">
<path d="M43.8475 43.0002C45.0361 43.0002 46 42.0364 46 40.8477V6.15246C46 4.96357 45.0361 4 43.8475 4H9.15246C7.96342 4 7 4.96357 7 6.15246V40.8477C7 42.0364 7.96342 43.0002 9.15246 43.0002H43.8475Z" fill="#3764C4"/>
<path d="M33.9093 43.0002V27.8973H38.9788L39.7378 22.0115H33.9093V18.2534C33.9093 16.5493 34.3826 15.388 36.8263 15.388L39.9431 15.3866V10.1224C39.4038 10.0506 37.5538 9.89038 35.4015 9.89038C30.9076 9.89038 27.8312 12.6333 27.8312 17.6707V22.0115H22.7487V27.8973H27.8312V43.0002H33.9093Z" fill="white"/>
</g>
<defs>
<clipPath id="clip0">
<rect width="39" height="39" fill="white" transform="translate(7 4)"/>
</clipPath>
</defs>
</svg>
