<svg width="36" height="36" viewBox="0 0 36 36" fill="none" xmlns="http://www.w3.org/2000/svg">
<path fill-rule="evenodd" clip-rule="evenodd" d="M30.96 18.3068C30.96 17.3496 30.8741 16.4291 30.7145 15.5455H18V20.7675H25.2655C24.9525 22.455 24.0014 23.8848 22.5716 24.8421V28.2293H26.9345C29.4873 25.8791 30.96 22.4182 30.96 18.3068Z" fill="#4285F4"/>
<path fill-rule="evenodd" clip-rule="evenodd" d="M18.0001 31.4999C21.6451 31.4999 24.701 30.2911 26.9346 28.2292L22.5717 24.842C21.3628 25.652 19.8164 26.1306 18.0001 26.1306C14.4839 26.1306 11.5078 23.7558 10.4462 20.5649H5.93597V24.0626C8.15734 28.4747 12.7228 31.4999 18.0001 31.4999Z" fill="#34A853"/>
<path fill-rule="evenodd" clip-rule="evenodd" d="M10.4461 20.565C10.1761 19.755 10.0227 18.8898 10.0227 18C10.0227 17.1102 10.1761 16.245 10.4461 15.435V11.9373H5.93591C5.02159 13.7598 4.5 15.8216 4.5 18C4.5 20.1784 5.02159 22.2402 5.93591 24.0627L10.4461 20.565Z" fill="#FBBC05"/>
<path fill-rule="evenodd" clip-rule="evenodd" d="M18.0001 9.86932C19.9821 9.86932 21.7617 10.5505 23.1607 11.8882L27.0328 8.01614C24.6948 5.83773 21.6389 4.5 18.0001 4.5C12.7228 4.5 8.15734 7.52523 5.93597 11.9373L10.4462 15.435C11.5078 12.2441 14.4839 9.86932 18.0001 9.86932Z" fill="#EA4335"/>
</svg>
