<svg width="611" height="533" viewBox="0 0 611 533" fill="none" xmlns="http://www.w3.org/2000/svg">
<path d="M414.023 36.3507C335.449 -55.6493 183.876 49.1991 61.9493 106.525C-59.977 163.851 81.8757 254.199 10.4494 348.525C-60.977 442.851 254.244 568.795 335.449 523.025C390.449 492.025 621.023 413.851 609.95 277.525C597.174 120.226 510.073 148.814 414.023 36.3507Z" fill="white" fill-opacity="0.2"/>
<path d="M294.971 449.711C412.675 449.711 508.092 390.943 508.092 318.45C508.092 245.956 412.675 187.189 294.971 187.189C177.267 187.189 81.8495 245.956 81.8495 318.45C81.8495 390.943 177.267 449.711 294.971 449.711Z" fill="#F5F5F5"/>
<path d="M380.904 309.463L264.53 242.271C263.633 241.815 262.641 241.577 261.635 241.577C260.629 241.577 259.637 241.815 258.74 242.271L160.467 299.005C158.869 299.919 158.869 301.426 160.467 302.348L276.842 369.541C277.739 369.996 278.731 370.234 279.737 370.234C280.743 370.234 281.735 369.996 282.632 369.541L290.642 364.919L344.061 334.067L380.904 312.796C382.539 311.874 382.539 310.385 380.904 309.463Z" fill="#E0E0E0"/>
<path d="M455.111 253.468L388.768 214.999C388.16 214.693 387.489 214.534 386.809 214.534C386.129 214.534 385.458 214.693 384.85 214.999L318.269 253.44C318.033 253.521 317.828 253.673 317.682 253.876C317.537 254.08 317.459 254.323 317.459 254.573C317.459 254.823 317.537 255.066 317.682 255.269C317.828 255.472 318.033 255.625 318.269 255.705L384.603 294.201C385.213 294.507 385.885 294.667 386.567 294.667C387.249 294.667 387.921 294.507 388.531 294.201L393.956 291.069L430.15 270.172L455.111 255.76C455.358 255.686 455.574 255.535 455.728 255.328C455.881 255.122 455.964 254.871 455.964 254.614C455.964 254.356 455.881 254.106 455.728 253.899C455.574 253.693 455.358 253.542 455.111 253.468Z" fill="#E0E0E0"/>
<path d="M143.589 342.58C162.409 342.58 177.665 333.772 177.665 322.907C177.665 312.042 162.409 303.234 143.589 303.234C124.77 303.234 109.514 312.042 109.514 322.907C109.514 333.772 124.77 342.58 143.589 342.58Z" fill="#E0E0E0"/>
<path d="M355.213 395.908C391.429 395.908 420.789 378.959 420.789 358.051C420.789 337.143 391.429 320.194 355.213 320.194C318.996 320.194 289.637 337.143 289.637 358.051C289.637 378.959 318.996 395.908 355.213 395.908Z" fill="#E0E0E0"/>
<path d="M444.599 258.61L434.041 252.509L444.599 249.458V258.61Z" fill="#E0E0E0"/>
<path opacity="0.1" d="M444.599 258.61L434.041 252.509L444.599 249.458V258.61Z" fill="black"/>
<path d="M391.681 280.018V289.744L330.764 254.491V244.773L391.681 280.018Z" fill="#E0E0E0"/>
<path opacity="0.1" d="M391.681 280.018V289.744L330.764 254.491V244.773L391.681 280.018Z" fill="black"/>
<path d="M325.485 168.521L386.403 203.765V283.068L325.485 247.823V168.521Z" fill="#E0E0E0"/>
<path d="M386.403 203.765L455.166 164.064V243.357L386.403 283.068V203.765Z" fill="#EBEBEB"/>
<path d="M455.166 164.064L394.257 128.81L325.485 168.521L386.403 203.765L455.166 164.064Z" fill="#F5F5F5"/>
<path d="M391.682 206.816L449.887 173.206V191.509L391.682 225.119V206.816Z" fill="#FAFAFA"/>
<path opacity="0.1" d="M391.682 231.219L449.887 197.61V240.307L391.682 273.917V231.219Z" fill="black"/>
<path d="M391.682 289.744L396.97 286.694V276.967L391.682 280.018V289.744Z" fill="#EBEBEB"/>
<path d="M444.599 258.61L449.887 255.559V246.408L444.599 249.458V258.61Z" fill="#EBEBEB"/>
<path d="M409.719 200.258C409.719 201.098 412.24 200.322 415.355 198.532L425.218 192.833C428.333 191.006 430.853 188.897 430.853 188.056V186.531L409.719 198.733V200.258Z" fill="#E0E0E0"/>
<path opacity="0.1" d="M449.887 240.307L413.153 218.817L391.682 231.219V273.917L449.887 240.307Z" fill="black"/>
<path d="M390.165 170.557C400.43 170.557 408.751 165.753 408.751 159.826C408.751 153.899 400.43 149.094 390.165 149.094C379.901 149.094 371.579 153.899 371.579 159.826C371.579 165.753 379.901 170.557 390.165 170.557Z" fill="#E0E0E0"/>
<path d="M406.769 154.885C405.778 152.973 404.222 151.414 402.312 150.419C395.6 146.546 384.722 146.546 378.009 150.419C376.1 151.411 374.546 152.972 373.561 154.885H372.977V157.433C372.977 159.972 374.657 162.511 378.009 164.447C384.722 168.32 395.6 168.32 402.312 164.447C405.664 162.511 407.345 159.972 407.345 157.433V154.885H406.769Z" fill="#37474F"/>
<path d="M377.973 161.899C371.269 158.027 371.269 151.743 377.973 147.871C384.676 143.998 395.563 143.989 402.276 147.871C408.989 151.752 408.989 158.027 402.276 161.899C395.563 165.772 384.722 165.772 377.973 161.899Z" fill="#455A64"/>
<path d="M393.901 153.35L390.677 152.218C404.459 112.946 372.264 100.36 370.885 99.8395L372.073 96.6429C372.493 96.7799 408.806 110.845 393.901 153.35Z" fill="#37474F"/>
<path d="M396.787 154.885C396.82 153.994 396.673 153.106 396.355 152.273C396.037 151.44 395.554 150.68 394.936 150.038C394.317 149.396 393.575 148.885 392.755 148.537C391.935 148.188 391.052 148.008 390.161 148.008C389.269 148.008 388.387 148.188 387.567 148.537C386.746 148.885 386.005 149.396 385.386 150.038C384.767 150.68 384.285 151.44 383.967 152.273C383.649 153.106 383.502 153.994 383.535 154.885C383.584 155.474 383.79 156.039 384.132 156.521C384.474 157.003 384.94 157.384 385.48 157.625C386.933 158.359 388.538 158.742 390.165 158.742C391.793 158.742 393.398 158.359 394.851 157.625C395.39 157.385 395.855 157.003 396.196 156.521C396.537 156.039 396.741 155.474 396.787 154.885Z" fill="#37474F"/>
<path d="M394.577 154.465C394.111 157.205 388.448 158.584 386.165 157.908C387.553 158.476 389.046 158.741 390.545 158.682C392.043 158.624 393.511 158.245 394.851 157.57C395.39 157.33 395.855 156.949 396.196 156.466C396.537 155.984 396.741 155.419 396.787 154.83C396.787 153.073 396.09 151.388 394.848 150.145C393.607 148.901 391.922 148.202 390.165 148.199C391.773 148.254 395.052 151.725 394.577 154.465Z" fill="#263238"/>
<path d="M371.671 97.538L370.52 96.2137L374.548 92.7065C374.726 92.5633 374.952 92.4922 375.18 92.5075C375.409 92.5227 375.623 92.6231 375.781 92.7887C375.927 92.9678 375.999 93.1955 375.984 93.426C375.969 93.6564 375.867 93.8726 375.699 94.0308L371.671 97.538Z" fill="black"/>
<path d="M374.182 99.7664C375.151 98.5517 374.31 96.3232 373.196 95.0446C372.082 93.766 369.999 92.6335 368.629 93.4189C367.26 94.2044 364.666 96.1589 364.666 96.1589L370.949 103.319C370.949 103.319 373.214 100.981 374.182 99.7664Z" fill="#37474F"/>
<path d="M371.123 93.5102C372.529 95.1451 373.123 98.2321 368.967 101.054L370.949 103.319C370.949 103.319 373.214 100.981 374.182 99.7664C375.151 98.5517 374.31 96.3232 373.196 95.0446C372.619 94.3949 371.913 93.8724 371.123 93.5102Z" fill="#263238"/>
<path d="M361.104 128.362C366.474 123.677 375.214 105.95 368.949 98.7435C362.684 91.5375 343.906 97.7663 338.536 102.406" fill="#455A64"/>
<path d="M337.376 110.123C335.431 102.917 339.431 99.4468 346.299 102.36C353.167 105.274 360.309 113.475 362.255 120.681C364.2 127.887 360.209 131.367 353.332 128.454C346.454 125.54 339.321 117.329 337.376 110.123Z" fill="#37474F"/>
<path d="M359.77 115.923C359.898 115.822 360.008 115.704 360.127 115.594C357.82 111.495 354.692 107.917 350.939 105.082L350.573 105.365C349.246 106.604 348.451 108.311 348.357 110.125C348.264 111.938 348.878 113.718 350.071 115.087C351.264 116.457 352.942 117.309 354.752 117.465C356.561 117.621 358.361 117.068 359.77 115.923Z" fill="#FEBC58"/>
<path opacity="0.7" d="M359.77 115.923C359.898 115.822 360.008 115.704 360.127 115.594C357.82 111.495 354.692 107.917 350.939 105.082L350.573 105.365C349.246 106.604 348.451 108.311 348.357 110.125C348.264 111.938 348.878 113.718 350.071 115.087C351.264 116.457 352.942 117.309 354.752 117.465C356.561 117.621 358.361 117.068 359.77 115.923Z" fill="white"/>
<path d="M195.502 124.179V113.274L204.708 112.471C204.84 112.46 204.973 112.485 205.092 112.544L214.28 117.795C214.365 117.848 214.437 117.919 214.492 118.003C214.547 118.087 214.582 118.182 214.596 118.282C214.61 118.381 214.602 118.482 214.573 118.578C214.543 118.674 214.493 118.762 214.426 118.836L204.672 129.413L195.502 124.179Z" fill="#FEBC58"/>
<path d="M204.672 129.413L214.426 118.846C214.519 118.745 214.579 118.619 214.599 118.484C214.619 118.349 214.597 118.21 214.537 118.088C214.476 117.965 214.38 117.864 214.261 117.797C214.142 117.73 214.005 117.701 213.869 117.713L204.672 118.517V129.413Z" fill="#FEBC58"/>
<path d="M195.511 113.265L204.644 118.517L213.85 117.704C213.953 117.685 214.058 117.685 214.161 117.704C213.43 117.275 205.402 112.681 205.028 112.507C204.913 112.438 204.778 112.409 204.644 112.425L195.511 113.265Z" fill="#FEBC58"/>
<path opacity="0.5" d="M195.511 113.265L204.644 118.517L213.85 117.704C213.953 117.685 214.058 117.685 214.161 117.704C213.43 117.275 205.402 112.681 205.028 112.507C204.913 112.438 204.778 112.409 204.644 112.425L195.511 113.265Z" fill="white"/>
<path d="M204.653 106.205C204.592 105.053 204.259 103.932 203.681 102.934C203.103 101.935 202.297 101.088 201.329 100.461L200.489 99.8943C199.461 99.3699 198.323 99.0965 197.169 99.0965C196.015 99.0965 194.877 99.3699 193.849 99.8943L165.061 116.526C164.093 117.153 163.287 118 162.709 118.999C162.131 119.997 161.798 121.118 161.737 122.27V155.533C161.797 156.687 162.129 157.81 162.707 158.81C163.285 159.81 164.092 160.659 165.061 161.287L165.902 161.853C166.93 162.371 168.065 162.641 169.217 162.641C170.368 162.641 171.504 162.371 172.532 161.853L181.035 156.94L192.086 150.547L201.329 145.213C202.297 144.586 203.103 143.738 203.681 142.74C204.259 141.741 204.592 140.62 204.653 139.468V106.205Z" fill="#FEBC58"/>
<path opacity="0.2" d="M161.737 155.533C161.797 156.687 162.129 157.81 162.707 158.81C163.285 159.81 164.092 160.659 165.061 161.287L165.902 161.853C166.837 162.321 167.861 162.586 168.906 162.631C169.95 162.677 170.993 162.502 171.966 162.118C170.404 162.703 169.226 161.826 169.226 159.935V126.663C169.268 125.509 169.601 124.385 170.194 123.394L162.723 119.001C162.123 119.989 161.787 121.115 161.746 122.27L161.737 155.533Z" fill="black"/>
<path opacity="0.5" d="M204.544 105.265C204.151 103.858 202.872 103.438 201.338 104.287L172.532 120.919C171.548 121.531 170.742 122.39 170.194 123.412L162.723 119.019C163.272 118.003 164.078 117.15 165.061 116.544L193.849 99.8943C194.879 99.3763 196.016 99.1064 197.169 99.1064C198.322 99.1064 199.459 99.3763 200.489 99.8943L201.338 100.47C202.17 101.01 202.883 101.713 203.434 102.537C203.985 103.362 204.363 104.29 204.544 105.265Z" fill="white"/>
<path d="M198.498 129.522L196.077 129.403C195.904 129.403 195.776 129.157 195.785 128.874C195.802 128.197 195.771 127.519 195.694 126.846C195.656 126.561 195.707 126.271 195.84 126.015L198.242 122.608C198.301 122.492 198.332 122.364 198.332 122.234C198.332 122.104 198.301 121.975 198.242 121.859L197.046 119.284C196.936 119.046 196.735 118.973 196.598 119.12L193.922 121.933C193.85 121.999 193.755 122.035 193.657 122.035C193.559 122.035 193.465 121.999 193.392 121.933C193.039 121.642 192.646 121.405 192.223 121.229C192.127 121.168 192.052 121.077 192.009 120.971C191.966 120.864 191.958 120.747 191.986 120.636L192.579 116.809C192.625 116.535 192.516 116.334 192.351 116.352L189.52 116.69C189.346 116.69 189.155 116.928 189.081 117.174L187.912 121.165C187.843 121.405 187.695 121.614 187.492 121.759C186.843 122.088 186.23 122.486 185.666 122.946C185.52 123.065 185.291 123.001 185.154 122.791L183.839 120.773C183.711 120.572 183.492 120.535 183.364 120.7L180.569 124.134C180.501 124.248 180.457 124.376 180.443 124.508C180.429 124.641 180.444 124.775 180.487 124.901L181.318 127.513C181.399 127.788 181.379 128.082 181.264 128.344C180.817 129.152 180.418 129.984 180.067 130.837C179.983 131.054 179.82 131.23 179.61 131.331L176.925 132.07C176.82 132.125 176.728 132.202 176.657 132.297C176.586 132.392 176.537 132.502 176.514 132.618L175.546 136.957C175.482 137.212 175.546 137.431 175.747 137.441L178.177 137.559C178.341 137.559 178.469 137.806 178.46 138.089C178.443 138.766 178.473 139.444 178.551 140.117C178.588 140.402 178.537 140.692 178.405 140.948L176.003 144.354C175.946 144.471 175.917 144.599 175.917 144.729C175.917 144.858 175.946 144.987 176.003 145.103L177.19 147.679C177.309 147.916 177.51 147.989 177.647 147.843L180.314 145.03C180.387 144.961 180.483 144.923 180.583 144.923C180.683 144.923 180.78 144.961 180.853 145.03C181.203 145.325 181.597 145.562 182.022 145.733C182.118 145.795 182.192 145.886 182.233 145.993C182.274 146.1 182.28 146.217 182.25 146.327L181.656 150.154C181.656 150.428 181.72 150.629 181.894 150.611L184.725 150.273C184.889 150.273 185.081 150.035 185.154 149.789L186.332 145.797C186.399 145.556 186.547 145.346 186.753 145.204C187.401 144.873 188.013 144.475 188.579 144.016C188.622 143.99 188.669 143.972 188.719 143.965C188.769 143.958 188.819 143.961 188.868 143.975C188.916 143.989 188.961 144.012 188.999 144.045C189.038 144.077 189.069 144.117 189.091 144.163L190.406 146.181C190.543 146.391 190.753 146.428 190.881 146.263L193.685 142.829C193.753 142.715 193.796 142.587 193.811 142.455C193.825 142.322 193.81 142.188 193.767 142.062L192.936 139.45C192.833 139.182 192.833 138.886 192.936 138.619C193.382 137.811 193.781 136.979 194.132 136.125C194.218 135.907 194.385 135.731 194.598 135.632L197.283 134.892C197.388 134.839 197.479 134.761 197.549 134.666C197.619 134.571 197.665 134.461 197.685 134.344L198.662 130.006C198.763 129.75 198.671 129.531 198.498 129.522ZM192.963 132.801C191.858 137.715 188.396 142.007 185.154 142.391C181.912 142.774 180.231 139.094 181.337 134.171C182.442 129.248 185.903 124.956 189.155 124.581C192.406 124.207 194.068 127.878 192.963 132.801Z" fill="#FAFAFA"/>
<path d="M358.857 259.879C359.282 262.426 358.919 265.042 357.817 267.377C356.716 269.713 354.928 271.657 352.692 272.949L280.541 310.55L280.331 314.714L277.043 316.614L281.28 319.044L361.003 272.894L358.857 259.879Z" fill="#37474F"/>
<path d="M283.545 337.383C283.089 331.848 285.052 326.268 289.875 323.491L354.875 285.982C355.728 285.489 356.688 285.21 357.673 285.169C358.657 285.127 359.637 285.325 360.528 285.745C361.419 286.166 362.196 286.795 362.791 287.581C363.386 288.366 363.781 289.284 363.944 290.256L359.606 264.391C360.023 266.883 359.669 269.444 358.59 271.73C357.511 274.015 355.759 275.916 353.569 277.177L286.276 316.121C285.794 316.454 285.23 316.649 284.646 316.684C284.061 316.72 283.477 316.595 282.958 316.324C282.439 316.052 282.005 315.643 281.701 315.143C281.397 314.642 281.236 314.067 281.235 313.481L280.888 309.91L283.545 337.383Z" fill="#455A64"/>
<path d="M284.961 159.835L266.549 170.475L345.093 220.223C347.581 221.797 349.708 223.878 351.337 226.33C352.965 228.782 354.059 231.55 354.546 234.453L365.999 308.568C366.031 308.773 366.112 308.967 366.236 309.134C366.359 309.3 366.522 309.434 366.709 309.524C366.896 309.614 367.102 309.657 367.309 309.65C367.517 309.642 367.719 309.584 367.899 309.481C368.328 309.225 368.575 308.76 368.429 306.951L361.88 228.187C361.515 223.739 358.674 218.442 354.154 214.853L284.961 159.835Z" fill="#455A64"/>
<path opacity="0.2" d="M317.886 202.952L329.613 210.369L327.156 193.335L316.644 184.997L317.886 202.952Z" fill="black"/>
<path d="M199.63 257.669L199.174 258.71C198.392 260.519 198.303 262.553 198.923 264.423C199.542 266.294 200.828 267.872 202.535 268.857L275.015 310.641L273.188 299.8L275.928 316.057L194.689 269.021L199.63 257.669Z" fill="#263238"/>
<path d="M199.63 257.669L199.338 258.327C198.827 259.517 198.705 260.838 198.988 262.102C199.272 263.366 199.947 264.508 200.917 265.366C201.887 266.224 203.104 266.754 204.393 266.881C205.682 267.007 206.978 266.724 208.097 266.071L211.193 264.29L215.312 266.665L198.416 276.419L193.064 272.848L199.63 257.669Z" fill="#263238"/>
<path d="M276.796 311.701L207.311 271.515C206.034 270.682 204.97 269.56 204.207 268.24C203.444 266.92 203.002 265.439 202.918 263.916V259.815C203.002 258.293 203.444 256.811 204.207 255.491C204.97 254.171 206.034 253.049 207.311 252.216L276.796 212.095C278.158 211.405 279.663 211.046 281.189 211.046C282.715 211.046 284.22 211.405 285.582 212.095L355.067 252.216C356.345 253.048 357.41 254.17 358.173 255.49C358.936 256.81 359.377 258.292 359.46 259.815V263.971C359.377 265.494 358.936 266.976 358.173 268.296C357.41 269.617 356.345 270.738 355.067 271.57L285.582 311.673C284.222 312.367 282.719 312.731 281.192 312.735C279.666 312.74 278.16 312.386 276.796 311.701Z" fill="#FEBC58"/>
<path opacity="0.3" d="M278.084 312.248C277.636 312.108 277.205 311.921 276.796 311.691L207.311 271.506C206.035 270.673 204.973 269.55 204.211 268.23C203.449 266.91 203.01 265.429 202.927 263.907V259.806C203.006 258.453 203.363 257.132 203.976 255.923C204.589 254.715 205.445 253.646 206.489 252.783C204.927 254.18 205.201 256.052 207.311 257.267L276.467 297.197L278.084 312.248Z" fill="black"/>
<path opacity="0.15" d="M359.46 259.843V263.989C359.379 265.514 358.939 266.998 358.176 268.32C357.412 269.642 356.347 270.765 355.067 271.597L285.582 311.701C284.429 312.28 283.173 312.626 281.887 312.718C280.6 312.811 279.307 312.648 278.084 312.239L276.467 297.234L276.796 297.425C278.156 298.119 279.662 298.481 281.189 298.481C282.716 298.481 284.222 298.119 285.582 297.425L355.067 257.304C357.186 256.089 357.46 254.208 355.889 252.819C356.936 253.68 357.794 254.749 358.409 255.957C359.024 257.166 359.381 258.489 359.46 259.843Z" fill="black"/>
<path d="M301.519 226.388L232.025 266.51C230.446 267.34 228.66 267.692 226.883 267.524C226.619 267.524 226.363 267.478 226.107 267.441H225.952L225.495 267.359H225.431C225.2 267.314 224.971 267.256 224.746 267.186C224.224 267.035 223.721 266.824 223.248 266.556L219.668 264.491C217.006 262.756 215.115 260.06 214.389 256.966L203.822 197.975C203.759 197.613 203.729 197.246 203.731 196.879C203.731 196.733 203.731 196.596 203.731 196.45C203.792 195.712 203.955 194.987 204.215 194.294C204.683 193.004 205.483 191.861 206.535 190.979L206.836 190.741C206.992 190.641 207.138 190.541 207.302 190.449L276.787 150.327C278.149 149.638 279.654 149.279 281.18 149.279C282.706 149.279 284.211 149.638 285.573 150.327L289.144 152.391C289.926 152.86 290.636 153.438 291.254 154.109C291.382 154.236 291.5 154.373 291.61 154.501C292.083 155.04 292.511 155.618 292.889 156.227C292.981 156.355 293.064 156.489 293.135 156.629C293.208 156.739 293.272 156.858 293.336 156.976C293.4 157.095 293.519 157.323 293.601 157.497C293.689 157.666 293.769 157.84 293.838 158.017C293.902 158.164 293.957 158.31 294.012 158.456C294.043 158.521 294.071 158.588 294.094 158.657C294.14 158.785 294.176 158.922 294.213 159.05C294.267 159.215 294.313 159.382 294.35 159.552C294.386 159.672 294.413 159.794 294.432 159.917L305.008 218.917C305.19 220.365 304.959 221.834 304.342 223.156C303.725 224.478 302.746 225.598 301.519 226.388Z" fill="#FEBC58"/>
<path d="M216.179 205.062L226.746 264.062C227.24 266.802 229.605 267.916 232.025 266.519L301.519 226.397C302.756 225.604 303.742 224.475 304.361 223.142C304.981 221.81 305.208 220.329 305.017 218.871L294.441 159.881C293.948 157.141 291.582 156.026 289.162 157.433L219.668 197.546C218.432 198.337 217.447 199.465 216.829 200.796C216.211 202.127 215.986 203.607 216.179 205.062Z" fill="#FEBC58"/>
<path opacity="0.15" d="M216.179 205.062L226.746 264.062C227.24 266.802 229.605 267.916 232.025 266.519L301.519 226.397C302.756 225.604 303.742 224.475 304.361 223.142C304.981 221.81 305.208 220.329 305.017 218.871L294.441 159.881C293.948 157.141 291.582 156.026 289.162 157.433L219.668 197.546C218.432 198.337 217.447 199.465 216.829 200.796C216.211 202.127 215.986 203.607 216.179 205.062Z" fill="black"/>
<path opacity="0.3" d="M230.235 267.222C229.142 267.502 228.01 267.604 226.883 267.524C226.619 267.524 226.363 267.478 226.107 267.441C225.851 267.405 225.696 267.377 225.495 267.332H225.431C225.2 267.287 224.971 267.229 224.746 267.158C224.224 267.008 223.721 266.796 223.248 266.528L219.668 264.464C217.006 262.728 215.115 260.033 214.389 256.938L203.822 197.947C203.759 197.586 203.729 197.219 203.731 196.852C203.731 196.705 203.731 196.568 203.731 196.422C203.792 195.685 203.955 194.96 204.215 194.267L216.609 201.308C216.115 202.504 215.963 203.813 216.17 205.09L226.746 264.062C227.112 266.117 228.518 267.259 230.226 267.122C230.226 267.155 230.229 267.189 230.235 267.222Z" fill="black"/>
<path d="M376.146 320.012C376.146 320.012 380.347 336.451 383.169 341.657C386.233 347.544 390.009 353.031 394.412 357.996C395.472 359.174 397.874 361.366 398.741 362.325C398.947 362.512 399.109 362.741 399.215 362.998C399.321 363.254 399.369 363.531 399.355 363.808C399.341 364.085 399.265 364.355 399.134 364.6C399.003 364.844 398.819 365.056 398.595 365.221C396.513 367.294 387.517 367.961 382.411 364.243C377.306 360.526 372.986 354.407 369.926 351.457C368.392 349.959 366.949 348.534 365.899 347.475C365.401 346.979 365.039 346.362 364.849 345.686C364.659 345.009 364.646 344.295 364.812 343.612C364.912 343.219 365.022 342.753 365.141 342.205C366.218 337.328 360.382 324.998 360.382 324.998C364.565 318.861 370.712 319.126 376.146 320.012Z" fill="#FFA8A7"/>
<path d="M364.483 348.553C364.371 349.38 364.471 350.223 364.775 351C365.278 352.105 368.474 354.06 370.109 354.827C372.061 355.701 373.624 357.261 374.502 359.211C376.435 362.906 379.515 365.874 383.279 367.668C388.282 369.694 393.782 370.152 399.052 368.983C405.609 367.677 406.066 363.778 406.066 363.778C406.066 363.778 406.34 360.124 404.696 359.576C403.052 359.028 364.483 348.553 364.483 348.553Z" fill="#263238"/>
<path d="M364.273 337.273C364.314 337.861 364.292 338.452 364.209 339.036C364.036 340.863 363.889 341.986 363.816 344.059C363.72 345.59 363.96 347.124 364.52 348.553C366.511 351.201 371.114 351.996 373.835 355.613C376.557 359.229 379.808 364.828 388.448 366.371C397.088 367.915 403.591 365.047 405.144 362.563C406.696 360.079 405.144 357.795 399.6 354.918C393.672 351.868 386.54 343.548 386.54 343.539C385.818 342.698 385.188 341.767 384.549 340.872C383.743 339.893 383.094 338.796 382.621 337.62C382.215 336.367 381.979 335.064 381.918 333.748C381.931 333.635 381.901 333.521 381.836 333.428C381.749 333.356 381.639 333.317 381.525 333.319C378.303 333.024 375.071 333.777 372.31 335.465C372.022 335.624 371.77 335.842 371.57 336.104C371.429 336.339 371.327 336.595 371.269 336.862C371.086 337.556 370.894 338.25 370.703 338.945C370.669 339.226 370.574 339.496 370.424 339.735C370.274 339.975 370.073 340.179 369.835 340.333C369.205 340.616 368.502 340.168 367.954 339.739C367.406 339.31 367.04 338.333 366.447 337.913C365.831 337.427 365.053 337.198 364.273 337.273Z" fill="#455A64"/>
<path d="M382.804 364.426C382.804 364.426 382.567 358.389 389.005 354.937C395.444 351.484 399.435 353.548 401.454 354.937C403.856 356.599 407.317 360.088 405.308 362.718C403.134 365.549 399.609 366.947 392.969 367.157C386.329 367.367 382.804 364.426 382.804 364.426Z" fill="#FAFAFA"/>
<path d="M282.312 234.617C285.418 243.522 286.504 253.623 298.177 261.834C308.789 269.295 332.499 274.949 335.495 276.447C338.49 277.944 340.463 278.447 341.751 283.296C343.495 289.918 343.705 294.932 349.916 306.559C354.281 314.733 357.624 320.587 361.067 326.606C364.218 326.971 374.959 324.021 376.594 321.509C375.808 316.431 366.794 268.19 361.35 257.66C356.784 248.755 299.519 219.657 299.519 219.657C299.519 219.657 279.207 225.703 282.312 234.617Z" fill="#FEBC58"/>
<path opacity="0.35" d="M282.312 234.617C285.418 243.522 286.504 253.623 298.177 261.834C308.789 269.295 332.499 274.949 335.495 276.447C338.49 277.944 340.463 278.447 341.751 283.296C343.495 289.918 343.705 294.932 349.916 306.559C354.281 314.733 357.624 320.587 361.067 326.606C364.218 326.971 374.959 324.021 376.594 321.509C375.808 316.431 366.794 268.19 361.35 257.66C356.784 248.755 299.519 219.657 299.519 219.657C299.519 219.657 279.207 225.703 282.312 234.617Z" fill="black"/>
<path opacity="0.1" d="M361.067 326.578C363.34 326.583 365.6 326.245 367.771 325.574C367.476 324.9 367.125 324.252 366.721 323.638C362.958 317.984 360.328 312.349 356.884 305.435C349.578 290.758 351.404 275.944 347.432 269.597C344.016 264.163 335.02 258.838 335.02 258.838L351.651 249.239C351.167 248.901 350.665 248.563 350.153 248.225H350.08C349.048 247.54 347.97 246.837 346.856 246.125L346.756 246.061L343.285 243.887H343.221L341.395 242.791C340.177 242.048 338.938 241.309 337.677 240.572L337.513 240.471C336.295 239.741 335.047 239.013 333.768 238.288L333.558 238.17L331.732 237.138L331.64 237.083L329.741 236.005L329.567 235.914L327.887 235.001L327.585 234.827L325.759 233.813L325.64 233.74L323.969 232.827L323.594 232.617L321.886 231.704L317.95 231L285.409 244.618C285.829 245.814 286.322 247.011 286.806 248.207C287.706 250.289 288.821 252.273 290.13 254.125L305.821 266.081C315.146 270.355 327.083 273.679 332.645 275.433L334.024 275.88L334.17 275.935L334.554 276.063L334.709 276.118L335.01 276.237L335.12 276.282L335.44 276.419L337.047 277.196C338.365 277.739 339.496 278.657 340.299 279.835C340.942 280.899 341.414 282.058 341.696 283.269C341.806 283.68 341.906 284.091 342.006 284.493C342.299 285.708 342.564 286.877 342.828 288.064C342.92 288.457 343.011 288.859 343.112 289.26C343.395 290.457 343.705 291.699 344.098 293.023C344.235 293.462 344.372 293.937 344.518 294.375C344.819 295.288 345.167 296.284 345.568 297.316C346.805 300.474 348.239 303.552 349.861 306.531C350.126 307.043 350.4 307.545 350.665 308.038C352.254 310.997 353.715 313.655 355.094 316.139L355.779 317.363C356.693 318.98 357.56 320.532 358.428 322.057C359.076 323.199 359.725 324.322 360.364 325.455L361.012 326.578H361.067Z" fill="black"/>
<path d="M330.243 341.52C330.243 341.52 334.435 357.96 337.266 363.166C340.305 369.043 344.05 374.526 348.418 379.496C349.486 380.683 351.888 382.875 352.756 383.834C352.962 384.02 353.123 384.25 353.229 384.506C353.336 384.762 353.383 385.039 353.369 385.316C353.355 385.593 353.28 385.864 353.149 386.108C353.017 386.352 352.833 386.565 352.61 386.729C350.528 388.802 341.532 389.469 336.417 385.752C331.302 382.035 327.001 375.915 323.941 372.965C322.407 371.468 320.964 370.034 319.913 368.983C319.413 368.487 319.05 367.869 318.86 367.19C318.67 366.512 318.658 365.795 318.827 365.111C318.927 364.718 319.028 364.262 319.155 363.714C320.224 358.827 314.388 346.507 314.388 346.507C318.607 340.388 324.772 340.625 330.243 341.52Z" fill="#FFA8A7"/>
<path d="M318.543 370.052C318.431 370.882 318.532 371.728 318.836 372.509C319.338 373.605 322.489 375.559 324.16 376.326C325.832 377.094 327.074 378.308 328.553 380.71C330.59 384.017 333.613 387.551 337.33 389.168C342.332 391.2 347.833 391.662 353.103 390.492C359.67 389.177 360.127 385.286 360.127 385.286C360.127 385.286 360.401 381.633 358.757 381.085C357.113 380.537 318.543 370.052 318.543 370.052Z" fill="#263238"/>
<path d="M318.297 358.782C318.338 359.367 318.316 359.955 318.233 360.535C318.059 362.362 317.904 363.494 317.84 365.568C317.743 367.096 317.983 368.627 318.543 370.052C320.534 372.71 325.138 373.504 327.859 377.121C330.581 380.738 333.832 386.336 342.472 387.88C351.112 389.423 357.615 386.556 359.158 384.071C360.702 381.587 359.204 379.304 353.624 376.427C347.696 373.367 340.563 365.047 340.554 365.047C339.842 364.207 339.203 363.275 338.563 362.38C337.764 361.396 337.118 360.296 336.645 359.12C336.238 357.869 336.002 356.57 335.942 355.256C335.949 355.2 335.944 355.142 335.929 355.087C335.913 355.032 335.886 354.981 335.851 354.937C335.768 354.863 335.66 354.824 335.549 354.827C332.327 354.533 329.095 355.285 326.334 356.973C326.044 357.13 325.792 357.348 325.594 357.613C325.451 357.846 325.349 358.103 325.293 358.371C325.101 359.056 324.918 359.75 324.727 360.444C324.686 360.729 324.583 361.003 324.425 361.244C324.267 361.485 324.058 361.689 323.813 361.841C323.183 362.115 322.48 361.668 321.932 361.248C321.384 360.828 321.019 359.841 320.425 359.375C319.813 358.921 319.055 358.709 318.297 358.782Z" fill="#455A64"/>
<path d="M336.874 385.935C336.874 385.935 336.636 379.897 343.075 376.445C349.514 372.993 353.505 375.057 355.523 376.445C357.925 378.098 361.378 381.596 359.378 384.217C357.204 387.058 353.669 388.455 347.039 388.665C340.408 388.875 336.874 385.935 336.874 385.935Z" fill="#FAFAFA"/>
<path d="M240.866 228.489C239.295 237.311 237.213 251.066 242.547 258.838C247.479 266.008 254.073 270.875 266.101 278.556C279.362 287.023 285.984 291.151 289.117 293.379C292.249 295.608 295.291 298.713 296.231 303.645C297.336 309.381 298.368 315.052 303.976 326.944C308.378 336.296 313.283 344.863 315.767 349.603C319.493 350.242 328.809 348.452 331.248 345.292C329.896 338.214 322.169 288.009 318.872 280.566C315.575 273.122 289.381 250.792 289.381 250.792C289.381 250.792 287.308 237.293 289.427 228.489H240.866Z" fill="#FEBC58"/>
<path opacity="0.35" d="M240.866 228.489C239.295 237.311 237.213 251.066 242.547 258.838C247.479 266.008 254.073 270.875 266.101 278.556C279.362 287.023 285.984 291.151 289.117 293.379C292.249 295.608 295.291 298.713 296.231 303.645C297.336 309.381 298.368 315.052 303.976 326.944C308.378 336.296 313.283 344.863 315.767 349.603C319.493 350.242 328.809 348.452 331.248 345.292C329.896 338.214 322.169 288.009 318.872 280.566C315.575 273.122 289.381 250.792 289.381 250.792C289.381 250.792 287.308 237.293 289.427 228.489H240.866Z" fill="black"/>
<path opacity="0.1" d="M322.599 349.174C322.247 348.061 321.775 346.989 321.192 345.977C316.626 337.492 310.187 323.364 307.081 312.824C303.976 302.284 306.479 294.603 301.291 288.356C299.598 286.105 297.693 284.023 295.601 282.137L312.159 272.035C309.419 269.186 305.273 265.112 301.876 261.989C291.656 259.806 277.216 266.638 272.65 262.29C263.032 253.157 267.389 251.057 282.267 242.745C283.975 241.832 286.148 240.608 288.523 239.257C297.784 233.777 300.305 228.078 301.309 220.634L240.885 228.525C240.537 230.452 240.172 232.617 239.862 234.918C239.77 235.576 239.688 236.234 239.615 236.909C239.423 238.581 239.268 240.307 239.195 242.033C239.195 242.727 239.14 243.412 239.131 244.106C239.131 245.138 239.131 246.17 239.204 247.184C239.204 247.86 239.295 248.527 239.368 249.193C239.53 250.804 239.836 252.396 240.282 253.952C240.772 255.705 241.537 257.369 242.547 258.884C242.857 259.331 243.177 259.797 243.46 260.208C244.427 261.505 245.47 262.743 246.584 263.916C247.742 265.14 248.961 266.304 250.237 267.405C251.15 268.172 252.063 268.93 253.059 269.706C254.055 270.483 255.123 271.268 256.246 272.072C259.059 274.081 262.283 276.2 266.046 278.602L270.713 281.579C275.088 284.365 278.577 286.575 281.353 288.356L282.687 289.206C285.655 291.114 287.692 292.448 289.08 293.425C290.523 294.421 291.831 295.6 292.971 296.932C294.614 298.867 295.725 301.196 296.195 303.691C297.3 309.426 298.332 315.098 303.94 326.989C306.141 331.666 308.506 336.122 310.561 340.05C311.337 341.511 312.086 342.899 312.78 344.178C313.94 346.315 314.954 348.169 315.73 349.658C318.031 349.874 320.351 349.711 322.599 349.174Z" fill="black"/>
<path d="M295.601 238.699C293.717 241.476 291.632 244.11 289.363 246.581L291.135 248.07C293.26 245.292 294.782 242.1 295.601 238.699Z" fill="#37474F"/>
<path d="M331.312 227.813C329.713 220.616 325.393 200.642 323.731 192.057C323.262 189.637 322.264 187.351 320.809 185.362L299.364 154.465L296.387 156.648L299.044 191.353L305.081 198.267C308.534 209.948 316.845 232.973 316.845 232.973C321.63 238.718 332.481 233.055 331.312 227.813Z" fill="#FFA8A7"/>
<path d="M276.686 146.747C286.011 145.112 292.907 145.642 298.816 152.227C303.538 157.488 319.987 182.366 319.987 182.366C319.987 182.366 313.493 194.797 302.378 197.39L287.171 182.202L276.686 146.747Z" fill="#455A64"/>
<path d="M263.124 147.615C251.744 149.715 244.145 152.181 241.999 154.255C237.158 164.164 243.46 197.418 243.46 197.418L242.812 212.944L240.072 228.47C252.374 238.864 294.569 235.156 301.264 220.588C301.264 220.588 299.09 175.443 298.25 167.078C297.282 157.424 292.03 147.323 279.134 146.565L263.124 147.615Z" fill="#FAFAFA"/>
<path d="M254.831 224.342C251.543 219.282 248.666 206.313 248.666 206.313C248.666 206.313 254.091 172.411 252.767 164.411L240.894 179.444C241.862 189.043 243.451 197.418 243.451 197.418L242.802 212.944L240.063 228.47C249.899 236.782 277.435 237.941 294.514 227.42C276.449 233.402 258.128 229.402 254.831 224.342Z" fill="#EBEBEB"/>
<path d="M255.324 117.53C255.324 117.53 257.096 130.545 258.064 132.728C258.696 134.082 259.824 135.141 261.215 135.687L261.699 126.654L255.324 117.53Z" fill="#263238"/>
<path d="M260.155 99.4285C259.211 99.2465 258.237 99.2818 257.308 99.5318C256.38 99.7818 255.52 100.24 254.794 100.872C252.374 103 253.095 110.279 255.361 117.53L260.457 118.498L260.155 99.4285Z" fill="#263238"/>
<path d="M261.982 118.617C260.904 119.156 259.589 117.074 258.42 115.649C257.251 114.224 253.232 112.096 250.84 116.297C248.447 120.499 251.899 126.746 255.087 128.015C260.566 130.198 261.69 126.654 261.69 126.654L260.466 148.985C265.562 160.091 290.03 159.479 278.96 148.665L279.362 141.624C282.175 142.04 285.013 142.254 287.856 142.263C292.039 141.934 293.957 139.194 295.546 134.81C298.094 127.769 299.3 122.024 298.642 107.74C297.93 92.0946 279.91 90.5877 269.709 95.9853C259.507 101.383 261.982 118.617 261.982 118.617Z" fill="#FFA8A7"/>
<path d="M261.598 91.0169C265.124 89.8128 268.772 89.0042 272.476 88.6058C280.467 87.4915 288.596 86.5143 296.058 83.4273C296.935 82.9445 297.937 82.7346 298.935 82.8245C300.761 83.2172 301.465 85.5644 301.401 87.4824C301.342 89.2589 300.984 91.0127 300.341 92.67C301.446 91.5375 303.519 91.8572 304.57 93.0536C305.053 93.6878 305.386 94.4233 305.544 95.2047C305.702 95.9861 305.681 96.7932 305.483 97.5654C304.752 101.045 301.83 103.776 298.533 105.109C295.236 106.443 291.564 106.552 288.002 106.388C283.028 106.158 278.091 105.411 273.271 104.159C272.123 103.779 270.917 103.603 269.709 103.639C269.103 103.663 268.515 103.857 268.013 104.197C267.512 104.538 267.115 105.012 266.868 105.566C266.202 107.484 264.667 120.763 261.918 120.608C261.407 120.608 259.717 117.083 258.548 115.795C257.068 114.169 256.329 102.643 256.201 100.506C256.183 100.34 256.12 100.182 256.018 100.05C254.411 97.4101 256.831 93.3367 259.142 92.1311C259.937 91.709 260.757 91.3369 261.598 91.0169Z" fill="#263238"/>
<path d="M256.959 100.296C256.252 100.98 255.306 101.36 254.322 101.355C253.339 101.35 252.397 100.96 251.697 100.269C250.998 99.5778 250.596 98.6402 250.58 97.657C250.563 96.6737 250.931 95.7229 251.607 95.0081L256.959 100.296Z" fill="#263238"/>
<path d="M279.335 141.624C279.335 141.624 270.202 140.053 267.06 138.089C265.235 136.958 263.793 135.303 262.923 133.34C263.27 135.265 264 137.1 265.069 138.737C267.206 141.934 279.125 145.131 279.125 145.131L279.335 141.624Z" fill="#F28F8F"/>
<path d="M280.248 117.567C280.202 117.919 280.053 118.25 279.821 118.519C279.589 118.789 279.283 118.984 278.942 119.082C278.6 119.18 278.237 119.177 277.898 119.072C277.558 118.967 277.257 118.765 277.03 118.491C276.804 118.217 276.662 117.883 276.622 117.53C276.583 117.177 276.647 116.82 276.807 116.503C276.968 116.185 277.217 115.922 277.525 115.744C277.833 115.567 278.186 115.483 278.54 115.503C278.789 115.525 279.03 115.595 279.251 115.711C279.472 115.827 279.667 115.986 279.826 116.178C279.985 116.37 280.104 116.591 280.177 116.83C280.249 117.068 280.273 117.319 280.248 117.567Z" fill="#263238"/>
<path d="M278.851 110.434L274.768 112.324C274.527 111.76 274.512 111.123 274.728 110.548C274.945 109.973 275.374 109.503 275.928 109.237C276.199 109.122 276.489 109.062 276.783 109.06C277.076 109.058 277.368 109.114 277.64 109.225C277.911 109.336 278.159 109.501 278.366 109.708C278.574 109.916 278.739 110.162 278.851 110.434Z" fill="#263238"/>
<path d="M279.335 130.454L283.436 132.353C283.324 132.631 283.158 132.883 282.946 133.094C282.735 133.305 282.483 133.471 282.206 133.582C281.928 133.693 281.631 133.746 281.332 133.739C281.034 133.732 280.739 133.665 280.467 133.541C279.915 133.273 279.488 132.802 279.277 132.226C279.066 131.65 279.087 131.015 279.335 130.454Z" fill="#F28F8F"/>
<path d="M296.688 113.366L293.29 110.315C293.478 110.084 293.71 109.894 293.974 109.756C294.237 109.618 294.526 109.535 294.822 109.511C295.119 109.488 295.417 109.526 295.698 109.622C295.98 109.717 296.239 109.87 296.46 110.069C296.912 110.485 297.188 111.058 297.231 111.672C297.273 112.285 297.079 112.891 296.688 113.366Z" fill="#263238"/>
<path d="M295.208 118.188C295.203 118.44 295.146 118.689 295.042 118.919C294.938 119.149 294.788 119.355 294.602 119.526C294.416 119.696 294.198 119.828 293.96 119.912C293.722 119.996 293.469 120.031 293.217 120.015C292.835 120.001 292.465 119.875 292.155 119.651C291.845 119.427 291.609 119.115 291.476 118.757C291.344 118.398 291.321 118.008 291.411 117.636C291.501 117.264 291.699 116.927 291.981 116.669C292.263 116.41 292.615 116.241 292.994 116.184C293.372 116.126 293.758 116.182 294.105 116.345C294.451 116.508 294.74 116.77 294.937 117.098C295.134 117.427 295.228 117.806 295.208 118.188Z" fill="#263238"/>
<path d="M285.765 116.279L285.545 127.458L291.5 125.905L285.765 116.279Z" fill="#F28F8F"/>
<path d="M252.767 258.053V259.185C252.769 259.75 252.918 260.306 253.2 260.796C253.482 261.286 253.886 261.694 254.374 261.98L285.071 279.643C285.561 279.924 286.117 280.072 286.683 280.072C287.248 280.072 287.804 279.924 288.295 279.643L344.6 247.129C345.089 246.847 345.495 246.441 345.777 245.952C346.06 245.463 346.208 244.908 346.208 244.344V243.558L286.687 277.926L252.767 258.053Z" fill="#FEBC58"/>
<g opacity="0.5">
<path opacity="0.5" d="M252.767 258.053V259.185C252.769 259.75 252.918 260.306 253.2 260.796C253.482 261.286 253.886 261.694 254.374 261.98L285.071 279.643C285.561 279.924 286.117 280.072 286.683 280.072C287.248 280.072 287.804 279.924 288.295 279.643L344.6 247.129C345.089 246.847 345.495 246.441 345.777 245.952C346.06 245.463 346.208 244.908 346.208 244.344V243.558L286.687 277.926L252.767 258.053Z" fill="white"/>
</g>
<g opacity="0.1">
<path opacity="0.1" d="M252.767 258.053V259.185C252.769 259.75 252.918 260.306 253.2 260.796C253.482 261.286 253.886 261.694 254.374 261.98L285.071 279.643C285.561 279.924 286.117 280.072 286.683 280.072C287.248 280.072 287.804 279.924 288.295 279.643L344.6 247.129C345.089 246.847 345.495 246.441 345.777 245.952C346.06 245.463 346.208 244.908 346.208 244.344V243.558L286.687 277.926L252.767 258.053Z" fill="black"/>
</g>
<path d="M346.208 243.558L312.826 224.287C312.535 224.117 312.204 224.028 311.867 224.028C311.53 224.028 311.199 224.117 310.908 224.287L252.986 257.733C252.922 257.771 252.868 257.825 252.831 257.89C252.794 257.955 252.774 258.028 252.774 258.103C252.774 258.178 252.794 258.251 252.831 258.316C252.868 258.381 252.922 258.435 252.986 258.473L286.687 277.926L346.208 243.558Z" fill="#FEBC58"/>
<g opacity="0.85">
<path opacity="0.85" d="M346.208 243.558L312.826 224.287C312.535 224.117 312.204 224.028 311.867 224.028C311.53 224.028 311.199 224.117 310.908 224.287L252.986 257.733C252.922 257.771 252.868 257.825 252.831 257.89C252.794 257.955 252.774 258.028 252.774 258.103C252.774 258.178 252.794 258.251 252.831 258.316C252.868 258.381 252.922 258.435 252.986 258.473L286.687 277.926L346.208 243.558Z" fill="white"/>
</g>
<path d="M286.897 274.784L268.887 264.4L321.019 234.306L339.12 244.645L286.897 274.784Z" fill="#FEBC58"/>
<g opacity="0.6">
<path opacity="0.6" d="M286.897 274.784L268.887 264.4L321.019 234.306L339.12 244.645L286.897 274.784Z" fill="white"/>
</g>
<path d="M277.527 246.207L277.855 246.399L286.687 251.486L302.378 242.426L302.707 242.243L293.546 236.955L277.527 246.207Z" fill="#FEBC58"/>
<path d="M277.855 246.399L286.687 251.486L302.378 242.426L293.546 237.33L277.855 246.399Z" fill="#FEBC58"/>
<g opacity="0.6">
<path opacity="0.6" d="M277.855 246.399L286.687 251.486L302.378 242.426L293.546 237.33L277.855 246.399Z" fill="white"/>
</g>
<path d="M286.687 277.926V280.073C287.251 280.07 287.804 279.922 288.295 279.643L344.6 247.129C345.089 246.847 345.495 246.441 345.777 245.952C346.06 245.463 346.208 244.908 346.208 244.344V243.558L286.687 277.926Z" fill="#FEBC58"/>
<g opacity="0.03">
<path opacity="0.03" d="M286.687 277.926V280.073C287.251 280.07 287.804 279.922 288.295 279.643L344.6 247.129C345.089 246.847 345.495 246.441 345.777 245.952C346.06 245.463 346.208 244.908 346.208 244.344V243.558L286.687 277.926Z" fill="white"/>
</g>
<g opacity="0.2">
<path opacity="0.2" d="M286.687 277.926V280.073C287.251 280.07 287.804 279.922 288.295 279.643L344.6 247.129C345.089 246.847 345.495 246.441 345.777 245.952C346.06 245.463 346.208 244.908 346.208 244.344V243.558L286.687 277.926Z" fill="black"/>
</g>
<path d="M287.555 278.401C288.087 278.609 288.659 278.694 289.228 278.65C289.797 278.605 290.349 278.433 290.843 278.145L346.92 245.796C347.4 245.511 347.812 245.124 348.127 244.664C348.443 244.203 348.654 243.679 348.747 243.129L354.93 206.523C354.964 206.318 354.979 206.11 354.976 205.902C354.981 205.394 354.884 204.889 354.691 204.419C354.498 203.948 354.213 203.521 353.852 203.162L295.592 236.818C295.236 237.03 294.929 237.315 294.693 237.656C294.456 237.996 294.296 238.383 294.222 238.791L287.555 278.401Z" fill="#FEBC58"/>
<g opacity="0.4">
<path opacity="0.4" d="M287.555 278.401C288.087 278.609 288.659 278.694 289.228 278.65C289.797 278.605 290.349 278.433 290.843 278.145L346.92 245.796C347.4 245.511 347.812 245.124 348.127 244.664C348.443 244.203 348.654 243.679 348.747 243.129L354.93 206.523C354.964 206.318 354.979 206.11 354.976 205.902C354.981 205.394 354.884 204.889 354.691 204.419C354.498 203.948 354.213 203.521 353.852 203.162L295.592 236.818C295.236 237.03 294.929 237.315 294.693 237.656C294.456 237.996 294.296 238.383 294.222 238.791L287.555 278.401Z" fill="white"/>
</g>
<path d="M286.687 277.926L287.071 278.145C287.237 278.245 287.411 278.331 287.591 278.401L294.222 238.791C294.296 238.383 294.456 237.996 294.693 237.656C294.929 237.315 295.236 237.03 295.592 236.818L353.852 203.181C353.618 202.953 353.357 202.754 353.076 202.587L294.697 236.288C294.341 236.5 294.034 236.786 293.798 237.126C293.561 237.466 293.401 237.853 293.327 238.261L286.687 277.926Z" fill="#FEBC58"/>
<g opacity="0.6">
<path opacity="0.6" d="M286.687 277.926L287.071 278.145C287.237 278.245 287.411 278.331 287.591 278.401L294.222 238.791C294.296 238.383 294.456 237.996 294.693 237.656C294.929 237.315 295.236 237.03 295.592 236.818L353.852 203.181C353.618 202.953 353.357 202.754 353.076 202.587L294.697 236.288C294.341 236.5 294.034 236.786 293.798 237.126C293.561 237.466 293.401 237.853 293.327 238.261L286.687 277.926Z" fill="white"/>
</g>
<path d="M294.752 237.576L293.838 237.046C293.575 237.403 293.397 237.816 293.318 238.252L286.678 277.917L287.062 278.136C287.228 278.236 287.402 278.322 287.582 278.392L294.213 238.782C294.296 238.343 294.481 237.931 294.752 237.576Z" fill="#FEBC58"/>
<path opacity="0.5" d="M294.752 237.576L293.838 237.046C293.575 237.403 293.397 237.816 293.318 238.252L286.678 277.917L287.062 278.136C287.228 278.236 287.402 278.322 287.582 278.392L294.213 238.782C294.296 238.343 294.481 237.931 294.752 237.576Z" fill="white"/>
<path opacity="0.1" d="M294.752 237.576L293.838 237.046C293.575 237.403 293.397 237.816 293.318 238.252L286.678 277.917L287.062 278.136C287.228 278.236 287.402 278.322 287.582 278.392L294.213 238.782C294.296 238.343 294.481 237.931 294.752 237.576Z" fill="black"/>
<path d="M319.165 244.618C319.575 242.17 322.105 238.91 324.818 237.311C327.53 235.713 329.384 236.462 328.973 238.919C328.562 241.375 326.033 244.618 323.329 246.225C320.626 247.833 318.754 247.065 319.165 244.618Z" fill="#455A64"/>
<path d="M180.387 295.571L202.927 230.991H211.147L183.309 296.75C183.176 297.061 182.945 297.32 182.652 297.489C182.37 297.65 182.046 297.72 181.724 297.69C181.401 297.66 181.096 297.531 180.849 297.322C180.602 297.113 180.425 296.833 180.342 296.52C180.259 296.206 180.275 295.875 180.387 295.571Z" fill="#37474F"/>
<path d="M206.526 213.045L269.983 263.414C272.215 265.187 274.062 267.398 275.409 269.911C276.757 272.424 277.577 275.186 277.819 278.027L285.345 355.987C285.367 356.23 285.318 356.473 285.205 356.689C285.091 356.905 284.918 357.083 284.705 357.202C284.525 357.305 284.323 357.363 284.116 357.37C283.908 357.378 283.702 357.335 283.515 357.245C283.328 357.155 283.166 357.021 283.042 356.854C282.919 356.688 282.837 356.493 282.806 356.288L270.375 282.968C269.89 280.067 268.798 277.301 267.17 274.85C265.543 272.4 263.417 270.32 260.932 268.747L206.8 234.516C204.437 233.022 202.466 230.984 201.052 228.572C199.639 226.161 198.823 223.445 198.673 220.654C198.524 217.862 199.046 215.075 200.194 212.526C201.342 209.977 203.084 207.741 205.275 206.003L206.526 213.045Z" fill="#455A64"/>
<path opacity="0.2" d="M219.102 223.027C217.611 225.716 216.849 228.748 216.892 231.822C216.86 232.742 217.038 233.657 217.412 234.498C217.953 235.407 218.705 236.171 219.604 236.727C223.185 239.238 227.313 240.827 231.395 242.398C237.971 244.928 245.305 246.965 251.488 248.792L219.102 223.027Z" fill="black"/>
<path d="M197.977 261.432C197.073 263.529 196.969 265.885 197.686 268.053C198.403 270.221 199.891 272.051 201.868 273.195L266.649 310.641C267.481 311.116 268.43 311.346 269.388 311.304C270.345 311.262 271.27 310.949 272.057 310.402C272.844 309.856 273.459 309.097 273.832 308.215C274.206 307.332 274.321 306.362 274.166 305.417L279.143 334.771C278.697 332.215 277.7 329.788 276.222 327.656C274.745 325.523 272.821 323.738 270.585 322.423L198.571 280.849C197.669 280.328 196.666 280.003 195.63 279.897C194.593 279.79 193.546 279.904 192.557 280.231C191.568 280.558 190.659 281.091 189.89 281.794C189.121 282.497 188.509 283.354 188.095 284.31L197.977 261.432Z" fill="#37474F"/>
<path d="M289.381 255.906C288.185 253.961 276.869 242.143 275.444 241.229C272.394 239.174 268.613 239.567 264.43 237.677C260.621 235.96 258.712 233.95 250.155 228.479C242.026 223.283 236.939 219.84 236.939 219.84L247.634 186.221C254.566 172.466 249.524 157.177 244.364 153.104C237.971 154.501 233.605 156.218 229.587 170.566C227.121 179.38 218.874 206.514 217.202 215.657C215.211 226.616 214.846 229.356 224.509 234.151C234.418 239.074 253.488 246.499 256.685 247.851C259.881 249.203 260.831 251.038 263.078 252.317C264.736 253.285 266.49 254.078 268.311 254.682C270.43 255.442 272.408 256.547 274.166 257.952C274.622 258.317 275.079 258.683 275.581 259.012C278.531 261.039 281.5 262.601 285.135 261.45C289.135 260.181 290.541 257.842 289.381 255.906Z" fill="#FFA8A7"/>
<path d="M247.305 151.77C237.432 152.912 233.14 156.173 229.587 166.84C226.034 177.508 219.76 200.687 219.76 200.687C219.76 200.687 230.719 210.341 242.328 209.391L250.045 182.604C250.045 182.604 260.402 160.611 247.305 151.77Z" fill="#455A64"/>
<path d="M124.602 326.578C114.446 316.121 108.473 273.433 118.382 265.122H168.824C178.734 273.433 172.77 316.075 162.623 326.56L162.34 326.852L161.993 327.199C161.703 327.489 161.398 327.764 161.079 328.021C161.004 328.09 160.925 328.154 160.842 328.213C160.595 328.414 160.349 328.615 160.075 328.807C159.654 329.113 159.215 329.394 158.76 329.647C150.403 334.533 136.84 334.533 128.502 329.647C128.045 329.389 127.602 329.105 127.177 328.798C126.921 328.615 126.693 328.432 126.465 328.25L126.163 328.012C125.844 327.757 125.552 327.483 125.25 327.218C125.113 327.09 124.976 326.953 124.848 326.816C124.72 326.679 124.675 326.661 124.602 326.578Z" fill="#FEBC58"/>
<g opacity="0.5">
<path opacity="0.5" d="M124.602 326.578C114.446 316.121 108.473 273.433 118.382 265.122H168.824C178.734 273.433 172.77 316.075 162.623 326.56L162.34 326.852L161.993 327.199C161.703 327.489 161.398 327.764 161.079 328.021C161.004 328.09 160.925 328.154 160.842 328.213C160.595 328.414 160.349 328.615 160.075 328.807C159.654 329.113 159.215 329.394 158.76 329.647C150.403 334.533 136.84 334.533 128.502 329.647C128.045 329.389 127.602 329.105 127.177 328.798C126.921 328.615 126.693 328.432 126.465 328.25L126.163 328.012C125.844 327.757 125.552 327.483 125.25 327.218C125.113 327.09 124.976 326.953 124.848 326.816C124.72 326.679 124.675 326.661 124.602 326.578Z" fill="white"/>
</g>
<path d="M164.422 261.77C175.93 268.483 175.93 279.378 164.422 286.091C152.914 292.804 134.283 292.804 122.766 286.091C111.249 279.378 111.267 268.483 122.766 261.77C134.264 255.057 152.923 255.057 164.422 261.77Z" fill="#FEBC58"/>
<g opacity="0.7">
<path opacity="0.7" d="M164.422 261.77C175.93 268.483 175.93 279.378 164.422 286.091C152.914 292.804 134.283 292.804 122.766 286.091C111.249 279.378 111.267 268.483 122.766 261.77C134.264 255.057 152.923 255.057 164.422 261.77Z" fill="white"/>
</g>
<path d="M158.887 264.975C167.336 269.907 167.336 277.899 158.887 282.831C150.439 287.763 136.749 287.763 128.301 282.831C119.852 277.899 119.852 269.907 128.301 264.975C136.749 260.044 150.439 260.071 158.887 264.975Z" fill="#FEBC58"/>
<g opacity="0.3">
<path opacity="0.3" d="M158.887 264.975C167.336 269.907 167.336 277.899 158.887 282.831C150.439 287.763 136.749 287.763 128.301 282.831C119.852 277.899 119.852 269.907 128.301 264.975C136.749 260.044 150.439 260.071 158.887 264.975Z" fill="black"/>
</g>
<path d="M128.301 273.478C136.749 268.547 150.439 268.547 158.887 273.478C160.936 274.597 162.675 276.207 163.947 278.164C162.678 280.125 160.939 281.739 158.887 282.858C150.439 287.79 136.749 287.79 128.301 282.858C126.249 281.739 124.51 280.125 123.241 278.164C124.513 276.207 126.252 274.597 128.301 273.478Z" fill="#F5F5F5"/>
<path d="M139.461 251.952C138.871 250.798 138.441 249.569 138.183 248.298C137.616 245.23 138.384 241.704 140.868 239.814C141.854 239.065 143.142 238.508 143.608 237.339C143.781 236.674 143.781 235.976 143.608 235.311C143.142 232.681 142.256 229.986 142.987 227.429C143.379 226.262 144.011 225.19 144.843 224.282C145.676 223.374 146.689 222.651 147.818 222.159C150.099 221.22 152.5 220.606 154.951 220.333C156.282 220.19 157.578 219.813 158.778 219.219C160.184 218.424 160.604 217.036 161.518 215.812C162.538 214.474 163.699 213.25 164.979 212.159C167.546 209.866 170.76 207.976 174.313 208.131C181.729 208.46 181.519 214.844 179.373 219.675C177.227 224.507 176.633 226.068 181.309 231.128C185.985 236.188 185.949 242.38 180.396 245.86C174.843 249.34 171.263 249.796 173.455 256.491C175.409 262.473 176.624 267.578 171.098 273.962C167.527 278.1 162.641 281.041 156.485 280.794C154.034 280.6 151.626 280.036 149.343 279.123C147.663 278.292 148.795 276.985 148.229 275.323C147.011 271.761 145.794 268.196 144.576 264.628C143.662 261.888 142.914 258.811 141.662 256.199C140.977 254.692 140.155 253.358 139.461 251.952Z" fill="#FEBC58"/>
<g opacity="0.15">
<path opacity="0.15" d="M139.461 251.952C138.871 250.798 138.441 249.569 138.183 248.298C137.616 245.23 138.384 241.704 140.868 239.814C141.854 239.065 143.142 238.508 143.608 237.339C143.781 236.674 143.781 235.976 143.608 235.311C143.142 232.681 142.256 229.986 142.987 227.429C143.379 226.262 144.011 225.19 144.843 224.282C145.676 223.374 146.689 222.651 147.818 222.159C150.099 221.22 152.5 220.606 154.951 220.333C156.282 220.19 157.578 219.813 158.778 219.219C160.184 218.424 160.604 217.036 161.518 215.812C162.538 214.474 163.699 213.25 164.979 212.159C167.546 209.866 170.76 207.976 174.313 208.131C181.729 208.46 181.519 214.844 179.373 219.675C177.227 224.507 176.633 226.068 181.309 231.128C185.985 236.188 185.949 242.38 180.396 245.86C174.843 249.34 171.263 249.796 173.455 256.491C175.409 262.473 176.624 267.578 171.098 273.962C167.527 278.1 162.641 281.041 156.485 280.794C154.034 280.6 151.626 280.036 149.343 279.123C147.663 278.292 148.795 276.985 148.229 275.323C147.011 271.761 145.794 268.196 144.576 264.628C143.662 261.888 142.914 258.811 141.662 256.199C140.977 254.692 140.155 253.358 139.461 251.952Z" fill="black"/>
</g>
<path d="M149.544 279.059C149.653 279.023 149.748 278.953 149.814 278.859C149.88 278.765 149.913 278.653 149.91 278.538C149.599 241.905 169.783 220.041 170.002 219.821C170.103 219.717 170.16 219.578 170.16 219.433C170.16 219.288 170.103 219.149 170.002 219.045C169.952 218.993 169.892 218.951 169.825 218.923C169.758 218.895 169.687 218.88 169.614 218.88C169.542 218.88 169.47 218.895 169.403 218.923C169.337 218.951 169.276 218.993 169.226 219.045C169.016 219.264 148.53 241.43 148.85 278.529C148.851 278.615 148.873 278.7 148.913 278.776C148.953 278.852 149.011 278.918 149.081 278.968C149.151 279.018 149.232 279.05 149.318 279.063C149.403 279.075 149.49 279.068 149.572 279.04L149.544 279.059Z" fill="white"/>
<path d="M155.426 244.992L155.536 244.937C162.102 240.8 173.802 237.722 173.939 237.686C174.009 237.668 174.075 237.636 174.133 237.593C174.191 237.549 174.24 237.495 174.276 237.432C174.313 237.37 174.338 237.301 174.348 237.229C174.358 237.158 174.354 237.085 174.336 237.014C174.318 236.944 174.286 236.878 174.243 236.82C174.2 236.762 174.145 236.714 174.083 236.677C174.02 236.64 173.951 236.616 173.88 236.605C173.808 236.595 173.735 236.599 173.665 236.617C173.181 236.745 161.664 239.777 154.951 243.997C154.828 244.077 154.742 244.202 154.709 244.345C154.677 244.488 154.701 244.638 154.778 244.764C154.844 244.869 154.945 244.949 155.062 244.99C155.18 245.031 155.308 245.032 155.426 244.992Z" fill="white"/>
<path d="M157.454 239.969C157.587 239.911 157.692 239.803 157.747 239.668C157.801 239.533 157.801 239.382 157.746 239.247C156.22 235.58 154.181 232.149 151.691 229.055C151.645 229 151.588 228.954 151.525 228.921C151.461 228.888 151.392 228.868 151.32 228.862C151.249 228.856 151.177 228.864 151.109 228.886C151.041 228.909 150.978 228.944 150.923 228.991C150.813 229.086 150.745 229.221 150.733 229.366C150.721 229.511 150.767 229.655 150.859 229.767C153.267 232.78 155.246 236.112 156.741 239.668C156.798 239.8 156.904 239.906 157.036 239.962C157.169 240.018 157.319 240.021 157.454 239.969Z" fill="white"/>
<path d="M145.809 281.716C140.595 283.334 135.045 283.539 129.725 282.31C120.501 280.31 114.857 271.697 114.857 271.697C114.857 271.697 124.839 267.697 130.657 267.304C130.657 267.304 121.624 265.77 113.176 267.688C113.176 267.688 107.833 265.697 108.847 256.673C108.847 256.673 113.87 252.965 125.442 254.418C125.442 254.418 119.642 250.28 109.477 249.056C108.683 249.056 109.76 237.32 110.728 232.078C111.697 226.836 113.624 227.658 117.779 228.105C121.935 228.553 134.219 231.356 135.79 234.37C137.361 237.384 135.79 245.074 135.79 245.074C137.928 242.155 139.115 238.646 139.187 235.028C139.187 235.028 143.809 236.727 146.284 238.91C148.145 240.41 149.657 242.299 150.713 244.444C150.138 248.572 148.192 254.865 145.471 258.372C145.471 258.372 151.599 254.418 153.006 247.129C153.006 247.129 157.901 253.386 157.855 261.468C157.864 270.675 153.745 277.515 145.809 281.716Z" fill="#FEBC58"/>
<path d="M145.617 282.21C145.525 282.171 145.446 282.108 145.388 282.028C145.33 281.947 145.296 281.852 145.288 281.753C143.891 264.281 124.337 237.001 115.688 231.521C115.569 231.446 115.485 231.327 115.454 231.19C115.423 231.053 115.448 230.909 115.523 230.79C115.559 230.731 115.606 230.679 115.662 230.639C115.717 230.598 115.781 230.568 115.848 230.552C115.915 230.536 115.985 230.534 116.053 230.545C116.121 230.556 116.186 230.58 116.245 230.617C125.031 236.197 144.914 263.943 146.329 281.698C146.336 281.768 146.328 281.838 146.307 281.905C146.286 281.971 146.252 282.033 146.207 282.087C146.162 282.14 146.107 282.184 146.045 282.216C145.983 282.248 145.915 282.268 145.845 282.274C145.766 282.266 145.689 282.244 145.617 282.21Z" fill="white"/>
</svg>
